<?xml version="1.0" standalone="no"?>
<!DOCTYPE svg PUBLIC "-//W3C//DTD SVG 20010904//EN"
 "http://www.w3.org/TR/2001/REC-SVG-20010904/DTD/svg10.dtd">
<svg version="1.0" xmlns="http://www.w3.org/2000/svg"
 width="260.000000pt" height="260.000000pt" viewBox="0 0 260.000000 260.000000"
 preserveAspectRatio="xMidYMid meet">
<metadata>
Created by potrace 1.11, written by Peter Selinger 2001-2013
</metadata>
<g transform="translate(0.000000,260.000000) scale(0.100000,-0.100000)"
fill="#000000" stroke="none">
<path d="M214 2322 c-5 -4 -21 -34 -33 -67 -13 -33 -27 -69 -32 -80 -38 -86
-136 -352 -132 -361 2 -6 249 -134 548 -285 300 -151 545 -279 545 -285 0 -6
-25 -57 -56 -115 -197 -367 -213 -407 -168 -397 16 3 31 29 148 253 38 72 82
155 99 186 l30 57 291 -148 c670 -340 897 -451 913 -448 14 3 35 45 77 158 3
8 34 87 69 175 44 109 62 165 56 176 -4 9 -212 119 -461 244 -249 125 -619
312 -823 415 -552 279 -1052 530 -1056 530 -2 0 -9 -4 -15 -8z"/>
<path d="M690 730 c-107 -31 -178 -146 -167 -271 18 -198 230 -293 362 -161
92 92 104 232 30 344 -45 68 -151 110 -225 88z"/>
<path d="M1224 722 c-120 -50 -177 -174 -144 -310 14 -61 71 -131 127 -157
166 -79 346 100 296 294 -7 30 -23 69 -34 88 -19 31 -89 85 -116 90 -61 12
-92 11 -129 -5z"/>
<path d="M1563 561 c-28 -28 5 -35 189 -38 101 -2 253 -5 338 -7 164 -3 197 3
181 32 -9 16 -35 18 -283 21 -150 2 -304 4 -342 5 -48 1 -74 -3 -83 -13z"/>
<path d="M152 551 c-29 -29 7 -37 159 -34 142 3 173 11 162 39 -8 21 -299 17
-321 -5z"/>
</g>
</svg>
