<svg height="200" viewBox="0 0 170 200" width="170" xmlns="http://www.w3.org/2000/svg"><g fill="none" transform="translate(0 7)"><path d="m16.492147 46.5c-.425746 0-.8507189.0362518-1.2703136.1083626-4.0822886.7015749-6.82289859 4.5796624-6.12132375 8.661951l22.51342645 131.0000004c.6185558 3.599221 3.7396505 6.229686 7.3916374 6.229686h93.1946275c3.675688 0 6.809727-2.663854 7.401997-6.291511l21.387755-130.9999998c.065229-.3995247.098004-.8036747.098004-1.2084892 0-4.1421356-3.357865-7.5-7.5-7.5z" fill="#4a4a4a" stroke="#979797"/><path d="m57 11v-11h53v8.41176471" stroke="#4a4a4a" stroke-linecap="round" stroke-linejoin="round" stroke-width="13"/><rect fill="#7bb515" height="21" rx="2" width="170" y="20"/><rect fill="#7bb515" height="13" rx="2" width="136" x="17" y="9"/><g stroke="#7bb515" stroke-linecap="round" stroke-width="13"><path d="m37 67 15.6923077 111"/><path d="m85.5 67v111"/><path d="m133 67-13 111" fill="#7bb515"/></g></g></svg>