<?xml version="1.0" encoding="UTF-8"?>
<svg width="170px" height="200px" viewBox="0 0 170 200" version="1.1" xmlns="http://www.w3.org/2000/svg" xmlns:xlink="http://www.w3.org/1999/xlink">
    <!-- Generator: Sketch 52.5 (67469) - http://www.bohemiancoding.com/sketch -->
    <title>Group 7</title>
    <desc>Created with Sketch.</desc>
    <g id="Page-1" stroke="none" stroke-width="1" fill="none" fill-rule="evenodd">
        <g id="Desktop-Copy-2" transform="translate(-413.000000, -1985.000000)" fill-rule="nonzero">
            <g id="Group-7" transform="translate(413.000000, 1992.000000)">
                <path d="M16.492147,46.5 C16.066401,46.5 15.6414281,46.5362518 15.2218334,46.6083626 C11.1395448,47.3099375 8.39893481,51.188025 9.10050965,55.2703136 L31.6139361,186.270314 C32.2324919,189.869535 35.3535866,192.5 39.0055735,192.5 L132.200201,192.5 C135.875889,192.5 139.009928,189.836146 139.602198,186.208489 L160.989953,55.2084892 C161.055182,54.8089645 161.087957,54.4048145 161.087957,54 C161.087957,49.8578644 157.730092,46.5 153.587957,46.5 L16.492147,46.5 Z" id="Rectangle" stroke="#979797" fill="#4A4A4A"></path>
                <polyline id="Path-14" stroke="#4A4A4A" stroke-width="13" stroke-linecap="round" stroke-linejoin="round" points="57 11 57 0 110 0 110 8.41176471"></polyline>
                <rect id="Rectangle" fill="#7BB515" x="0" y="20" width="170" height="21" rx="2"></rect>
                <rect id="Rectangle" fill="#7BB515" x="17" y="9" width="136" height="13" rx="2"></rect>
                <path d="M37,67 L52.6923077,178" id="Path-11" stroke="#7BB515" stroke-width="13" stroke-linecap="round"></path>
                <path d="M85.5,67 L85.5,178" id="Path-12" stroke="#7BB515" stroke-width="13" stroke-linecap="round"></path>
                <path d="M133,67 L120,178" id="Path-13" stroke="#7BB515" stroke-width="13" fill="#7BB515" stroke-linecap="round"></path>
            </g>
        </g>
    </g>
</svg>