<?xml version="1.0" encoding="UTF-8"?>
<svg width="383px" height="193px" viewBox="0 0 383 193" version="1.1" xmlns="http://www.w3.org/2000/svg" xmlns:xlink="http://www.w3.org/1999/xlink">
    <!-- Generator: Sketch 52.5 (67469) - http://www.bohemiancoding.com/sketch -->
    <title>Group</title>
    <desc>Created with Sketch.</desc>
    <g id="Page-1" stroke="none" stroke-width="1" fill="none" fill-rule="evenodd">
        <g id="Desktop-Copy-2" transform="translate(-69.000000, -614.000000)" fill-rule="nonzero">
            <g id="Group" transform="translate(69.000000, 614.000000)">
                <polygon id="Rectangle" fill="#000000" transform="translate(275.106821, 23.750558) rotate(53.000000) translate(-275.106821, -23.750558) " points="259.356222 21.4121617 290.703147 22.8777528 290.85742 26.0889552 259.510495 24.6233641"></polygon>
                <polygon id="Rectangle" fill="#000000" transform="translate(262.966324, 13.709194) rotate(-36.000000) translate(-262.966324, -13.709194) " points="247.509543 10.735127 278.766534 9.24693654 278.423105 16.6832618 247.166114 18.1714523"></polygon>
                <polygon id="Rectangle-Copy" fill="#000000" transform="translate(263.099661, 34.906885) rotate(53.000000) translate(-263.099661, -34.906885) " points="243.128046 30.3686459 282.724162 32.2199189 283.071276 39.4451242 243.475159 37.5938512"></polygon>
                <polygon id="Rectangle-Copy-2" fill="#000000" transform="translate(281.080704, 39.392461) rotate(-28.000000) translate(-281.080704, -39.392461) " points="265.797627 36.277758 296.663149 34.9804999 296.363782 42.5071642 265.49826 43.8044223"></polygon>
                <path d="M14.1111111,97.0212766 L60.7777778,80 L74.7777778,82.5531915 L81,98.7234043 L60.7777778,112.340426 C51.0415964,111.41833 44.3008557,111.41833 40.5555556,112.340426 C36.8102554,113.262521 33.1806258,115.815712 29.6666667,120 L4,120 L14.1111111,97.0212766 Z" id="Rectangle" fill="#000000"></path>
                <path d="M59.7539813,90.3637093 L101.408377,73.0258013 L151.958255,43.6097139 L210.187498,52.4944784 L251.719877,54.3379719 L275.432512,106.52353 C235.562426,121.516458 204.793616,129.818379 183.126084,131.429292 C161.458552,133.040206 132.269207,127.70888 95.5580497,115.435314 L82.8605855,97.0212912 L59.7539813,90.3637093 Z" id="Rectangle" fill="#060901" transform="translate(167.593246, 87.659680) rotate(-12.000000) translate(-167.593246, -87.659680) "></path>
                <polygon id="Rectangle" fill="#000000" transform="translate(352.965320, 95.574967) rotate(36.000000) translate(-352.965320, -95.574967) " points="335.974075 92.17395 363.156433 86.1473538 367.172098 91.6744434 372.073596 105.00258 333.857045 103.740074"></polygon>
                <polygon id="Rectangle" fill="#060901" points="237 105.478632 303.433862 73 338.195767 96.9316239 356.73545 111.461538 383 139.666667 371.412698 154.196581 340.513228 173 264.809524 161.888889"></polygon>
                <path d="M172.21118,114 C161.434092,117.414634 164.084196,119.121951 180.161491,119.121951 C196.238785,119.121951 214.78951,119.97561 235.813665,121.682927 L270,165.219512 L252.509317,171.195122 L189.701863,184 L158.695652,174.609756 L158.695652,157.536585 L142,157.536585 L172.21118,114 Z" id="Rectangle" fill="#060901"></path>
                <polygon id="Rectangle" fill="#000000" transform="translate(34.151296, 88.814476) rotate(-11.000000) translate(-34.151296, -88.814476) " points="30.9494183 72.286427 37.9393488 72.1511557 37.3531733 105.342524 30.3632429 105.477796"></polygon>
                <polygon id="Rectangle" fill="#000000" transform="translate(53.937638, 69.125813) rotate(-11.000000) translate(-53.937638, -69.125813) " points="50.7808512 50.0445817 57.7707817 49.9093104 57.0944254 88.2070436 50.104495 88.3423149"></polygon>
                <path d="M125.101229,106.094319 L124.477433,128.480014 L182.422948,126.731164 L183.046744,104.345468 L125.101229,106.094319 Z" id="Rectangle" stroke="#FFFFFF" stroke-width="3" fill="#000000" transform="translate(153.762089, 116.412741) rotate(-18.000000) translate(-153.762089, -116.412741) "></path>
                <path d="M108.256016,126.256536 L103.383506,148.010489 L148.417644,158.672811 L153.290154,136.918857 L108.256016,126.256536 Z M262.88702,171.037741 L281.000243,167.0809 L281.041378,167.279972 L281.198837,167.037517 L282.976376,166.649213 L281.903512,165.952458 L282.573165,164.921327 L280.88397,165.290332 L280.590919,165.100014 L280.641204,165.343364 L262.527981,169.300205 L262.486846,169.101133 L262.329387,169.343587 L260.551848,169.731892 L261.624712,170.428647 L260.955059,171.459778 L262.644254,171.090773 L262.937305,171.281091 L262.88702,171.037741 Z" id="Rectangle-2" stroke="#FFFFFF" stroke-width="4" fill="#000000"></path>
                <polygon id="Rectangle-3" fill="#000000" points="6.20487805 140.746835 39.5560976 117 84.5414634 117 134.956098 156.860759 159 160.253165 159 179.759494 56.6195122 184 0 172.126582"></polygon>
                <polygon id="Rectangle" fill="#FFFFFF" transform="translate(145.462626, 116.141593) rotate(-18.000000) translate(-145.462626, -116.141593) " points="132.225992 114.849871 158.793594 114.048036 158.699261 117.433314 132.131658 118.23515"></polygon>
                <path d="M188.803412,83.8164425 L190.026965,123.886161 L217.564391,124.793037 L216.340838,84.7233182 L188.803412,83.8164425 Z" id="Rectangle" stroke="#FFFFFF" stroke-width="3" fill="#000000" transform="translate(203.183901, 104.304740) rotate(20.000000) translate(-203.183901, -104.304740) "></path>
                <path d="M70.5850513,166.841288 L70.9419275,184.086434 L114.384876,185.06882 L114.028,167.823674 L70.5850513,166.841288 Z" id="Rectangle" stroke="#FFFFFF" stroke-width="4" fill="#000000" transform="translate(92.484964, 175.955054) rotate(13.000000) translate(-92.484964, -175.955054) "></path>
                <polygon id="Rectangle" fill="#FFFFFF" transform="translate(85.091280, 172.269538) rotate(13.000000) translate(-85.091280, -172.269538) " points="75.7137329 169.933671 94.380885 170.355796 94.4688277 174.605404 75.8016755 174.18328"></polygon>
                <path d="M256.026623,161.394107 L255.676239,179.655075 L303.970083,178.641031 L304.320467,160.380064 L256.026623,161.394107 Z" id="Rectangle" stroke="#FFFFFF" stroke-width="3" fill="#060901" transform="translate(279.998353, 170.017569) rotate(-12.000000) translate(-279.998353, -170.017569) "></path>
                <path d="M217.84535,60.5378572 C217.709998,60.5337721 217.574556,60.5336155 217.439195,60.5373874 C213.574701,60.6450747 210.529209,63.8651632 210.636896,67.7296563 L212.233582,125.028746 C212.336877,128.735601 215.313089,131.718706 219.019696,131.830575 L256.476957,132.96107 C256.612309,132.965156 256.747752,132.965312 256.883113,132.96154 C260.747606,132.853853 263.793099,129.633764 263.685412,125.769271 L262.088725,68.4701817 C261.985431,64.7633268 259.009218,61.7802216 255.302612,61.6683527 L217.84535,60.5378572 Z" id="Rectangle" stroke="#FFFFFF" stroke-width="4" fill="#060901" transform="translate(237.161154, 96.749464) rotate(18.000000) translate(-237.161154, -96.749464) "></path>
                <path d="M215,80 L265,97" id="Path-9" stroke="#FFFFFF" stroke-width="3"></path>
                <polygon id="Rectangle" fill="#060901" points="258 54 275.772727 42 306.681818 54 323.681818 71.1428571 326 84 306.681818 71.1428571 278.090909 81.4285714"></polygon>
                <path d="M196.3125,40 L231,36.5882353 C224.833333,30.9019608 220.979167,28.0588235 219.4375,28.0588235 C217.125,28.0588235 226.375,19.5294118 225.604167,15.2647059 C225.090278,12.4215686 223.291667,11 220.208333,11 C217.125,11 215.583333,13.2745098 215.583333,17.8235294 C215.583333,24.6470588 209.416667,12.7058824 205.5625,14.4117647 C201.708333,16.1176471 207.104167,26.3529412 204.791667,27.2058824 C202.479167,28.0588235 194,28.0588235 194,30.6176471 C194,32.3235294 194.770833,35.4509804 196.3125,40 Z" id="Path-10" fill="#000000"></path>
            </g>
        </g>
    </g>
</svg>