<svg height="193" viewBox="0 0 383 193" width="383" xmlns="http://www.w3.org/2000/svg"><g fill="none"><g fill="#000"><path d="m259.356222 21.4121617 31.346925 1.4655911.154273 3.2112024-31.346925-1.4655911z" transform="matrix(.60181502 .79863551 -.79863551 .60181502 128.511442 -210.252961)"/><path d="m247.509543 10.735127 31.256991-1.48819046-.343429 7.43632526-31.256991 1.4881905z" transform="matrix(.80901699 -.58778525 .58778525 .80901699 42.164037 157.18595)"/><path d="m243.128046 30.3686459 39.596116 1.851273.347114 7.2252053-39.596117-1.851273z" transform="matrix(.60181502 .79863551 -.79863551 .60181502 132.64021 -196.221335)"/><path d="m265.797627 36.277758 30.865522-1.2972581-.299367 7.5266643-30.865522 1.2972581z" transform="matrix(.88294759 -.46947156 .46947156 .88294759 14.407533 136.57038)"/><path d="m14.1111111 97.0212766 46.6666667-17.0212766 14 2.5531915 6.2222222 16.1702128-20.2222222 13.6170217c-9.7361814-.922096-16.4769221-.922096-20.2222222 0-3.7453002.922095-7.3749298 3.475286-10.8888889 7.659574h-25.6666667z"/></g><path d="m59.7539813 90.3637093 41.6543957-17.337908 50.549878-29.4160874 58.229243 8.8847645 41.532379 1.8434935 23.712635 52.1855581c-39.870086 14.992928-70.638896 23.294849-92.306428 24.905762-21.667532 1.610914-50.856877-3.720412-87.5680343-15.993978l-12.6974642-18.4140228z" fill="#060901" transform="matrix(.9781476 -.20791169 .20791169 .9781476 -14.563158 36.760169)"/><path d="m335.974075 92.17395 27.182358-6.0265962 4.015665 5.5270896 4.901498 13.3281366-38.216551-1.262506z" fill="#000" transform="matrix(.80901699 .58778525 -.58778525 .80901699 123.587934 -189.214615)"/><path d="m237 105.478632 66.433862-32.478632 34.761905 23.9316239 18.539683 14.5299141 26.26455 28.205129-11.587302 14.529914-30.89947 18.803419-75.703704-11.111111z" fill="#060901"/><path d="m172.21118 114c-10.777088 3.414634-8.126984 5.121951 7.950311 5.121951 16.077294 0 34.628019.853659 55.652174 2.560976l34.186335 43.536585-17.490683 5.97561-62.807454 12.804878-31.006211-9.390244v-17.073171h-16.695652z" fill="#060901"/><path d="m30.9494183 72.286427 6.9899305-.1352713-.5861755 33.1913683-6.9899304.135272z" fill="#000" transform="matrix(.98162718 -.190809 .190809 .98162718 -16.319145 8.148147)"/><path d="m50.7808512 50.0445817 6.9899305-.1352713-.6763563 38.2977332-6.9899304.1352713z" fill="#000" transform="matrix(.98162718 -.190809 .190809 .98162718 -12.198841 11.561822)"/><path d="m125.101229 106.094319-.623796 22.385695 57.945515-1.74885.623796-22.385696z" fill="#000" stroke="#fff" stroke-width="3" transform="matrix(.95105652 -.30901699 .30901699 .95105652 -28.447863 53.212744)"/><path d="m108.256016 126.256536-4.87251 21.753953 45.034138 10.662322 4.87251-21.753954zm154.631004 44.781205 18.113223-3.956841.041135.199072.157459-.242455 1.777539-.388304-1.072864-.696755.669653-1.031131-1.689195.369005-.293051-.190318.050285.24335-18.113223 3.956841-.041135-.199072-.157459.242454-1.777539.388305 1.072864.696755-.669653 1.031131 1.689195-.369005.293051.190318z" fill="#000" stroke="#fff" stroke-width="4"/><path d="m6.20487805 140.746835 33.35121955-23.746835h44.9853658l50.4146346 39.860759 24.043902 3.392406v19.506329l-102.3804878 4.240506-56.6195122-11.873418z" fill="#000"/><path d="m132.225992 114.849871 26.567602-.801835-.094333 3.385278-26.567603.801836z" fill="#fff" transform="matrix(.95105652 -.30901699 .30901699 .95105652 -28.770278 50.634798)"/><path d="m188.803412 83.8164425 1.223553 40.0697185 27.537426.906876-1.223553-40.0697188z" fill="#000" stroke="#fff" stroke-width="3" transform="matrix(.93969262 .34202014 -.34202014 .93969262 47.927811 -63.202641)"/><path d="m70.5850513 166.841288.3568762 17.245146 43.4429485.982386-.356876-17.245146z" fill="#000" stroke="#fff" stroke-width="4" transform="matrix(.97437006 .22495105 -.22495105 .97437006 41.951659 -16.294874)"/><path d="m75.7137329 169.933671 18.6671521.422125.0879427 4.249608-18.6671522-.422124z" fill="#fff" transform="matrix(.97437006 .22495105 -.22495105 .97437006 40.933098 -14.726116)"/><path d="m256.026623 161.394107-.350384 18.260968 48.293844-1.014044.350384-18.260967z" fill="#060901" stroke="#fff" stroke-width="3" transform="matrix(.9781476 -.20791169 .20791169 .9781476 -29.230004 61.930223)"/><path d="m217.84535 60.5378572c-.135352-.0040851-.270794-.0042417-.406155-.0004698-3.864494.1076873-6.909986 3.3277758-6.802299 7.1922689l1.596686 57.2990897c.103295 3.706855 3.079507 6.68996 6.786114 6.801829l37.457261 1.130495c.135352.004086.270795.004242.406156.00047 3.864493-.107687 6.909986-3.327776 6.802299-7.192269l-1.596687-57.2990893c-.103294-3.7068549-3.079507-6.6899601-6.786113-6.801829z" fill="#060901" stroke="#fff" stroke-width="4" transform="matrix(.95105652 .30901699 -.30901699 .95105652 41.504722 -68.551571)"/><path d="m215 80 50 17" stroke="#fff" stroke-width="3"/><path d="m258 54 17.772727-12 30.909091 12 17 17.1428571 2.318182 12.8571429-19.318182-12.8571429-28.590909 10.2857143z" fill="#060901"/><path d="m196.3125 40 34.6875-3.4117647c-6.166667-5.6862745-10.020833-8.5294118-11.5625-8.5294118-2.3125 0 6.9375-8.5294117 6.166667-12.7941176-.513889-2.8431373-2.3125-4.2647059-5.395834-4.2647059-3.083333 0-4.625 2.2745098-4.625 6.8235294 0 6.8235294-6.166666-5.117647-10.020833-3.4117647-3.854167 1.7058824 1.541667 11.9411765-.770833 12.7941177-2.3125.8529411-10.791667.8529411-10.791667 3.4117647 0 1.7058823.770833 4.8333333 2.3125 9.3823529z" fill="#000"/></g></svg>